<svg width="24" height="24" viewBox="0 0 24 24" fill="none" xmlns="http://www.w3.org/2000/svg">
<mask id="mask0_1221_80" style="mask-type:alpha" maskUnits="userSpaceOnUse" x="0" y="0" width="24" height="24">
<rect width="24" height="24" fill="#D9D9D9"/>
</mask>
<g mask="url(#mask0_1221_80)">
<path d="M12 20.3269L10.8962 19.3346C9.23847 17.8307 7.86763 16.5384 6.78365 15.4577C5.69968 14.3769 4.84072 13.415 4.20675 12.5721C3.57277 11.7291 3.12982 10.9602 2.8779 10.2654C2.62597 9.57051 2.5 8.86538 2.5 8.15C2.5 6.73078 2.97852 5.54265 3.93558 4.5856C4.89263 3.62855 6.08076 3.15002 7.49998 3.15002C8.37306 3.15002 9.19806 3.3542 9.97498 3.76255C10.7519 4.17088 11.4269 4.75646 12 5.51927C12.5731 4.75646 13.2481 4.17088 14.025 3.76255C14.8019 3.3542 15.6269 3.15002 16.5 3.15002C17.9192 3.15002 19.1073 3.62855 20.0644 4.5856C21.0214 5.54265 21.5 6.73078 21.5 8.15C21.5 8.86538 21.374 9.57051 21.1221 10.2654C20.8701 10.9602 20.4272 11.7291 19.7932 12.5721C19.1592 13.415 18.3019 14.3769 17.2211 15.4577C16.1403 16.5384 14.7679 17.8307 13.1038 19.3346L12 20.3269Z" fill="#FF3D00"/>
</g>
</svg>
