<svg width="24" height="24" viewBox="0 0 24 24" fill="none" xmlns="http://www.w3.org/2000/svg">
<g id="ic/viewoff">
<rect width="24" height="24" fill="white" style="mix-blend-mode:multiply"/>
<g id="Vector">
<path d="M20.9643 11.8057C20.2789 10.0976 19.0838 8.61779 17.5262 7.54857L20.4002 4.80571L19.5542 4L3.59976 19.1943L4.44579 20L7.50587 17.0914C8.87177 17.8496 10.4193 18.2608 12 18.2857C13.9557 18.2157 15.8471 17.6014 17.4402 16.5188C19.0334 15.4362 20.2585 13.9328 20.9643 12.1943C21.0119 12.0687 21.0119 11.9313 20.9643 11.8057ZM12 15.7143C11.1729 15.7139 10.3677 15.4616 9.70193 14.9943L10.8 13.96C11.2553 14.1976 11.7792 14.2881 12.2931 14.2181C12.807 14.1481 13.2832 13.9213 13.6503 13.5717C14.0174 13.2221 14.2556 12.7686 14.3291 12.2791C14.4026 11.7897 14.3075 11.2907 14.0581 10.8571L15.1441 9.82286C15.5668 10.3758 15.8207 11.0292 15.8778 11.711C15.9349 12.3928 15.7928 13.0763 15.4675 13.686C15.1421 14.2957 14.646 14.8079 14.0341 15.1658C13.4221 15.5238 12.7182 15.7136 12 15.7143Z" fill="#DFDFDF"/>
<path d="M5.11781 15.32L8.11789 12.4629C8.10229 12.309 8.09628 12.1545 8.09989 12C8.10148 11.0154 8.51289 10.0715 9.24396 9.37527C9.97503 8.67904 10.9661 8.28723 12 8.28571C12.1585 8.28652 12.3167 8.29606 12.474 8.31429L14.7421 6.16C13.8594 5.87126 12.9333 5.72074 12 5.71429C10.0443 5.78433 8.15292 6.3986 6.55977 7.48119C4.96661 8.56378 3.74146 10.0672 3.03575 11.8057C2.98808 11.9313 2.98808 12.0687 3.03575 12.1943C3.49657 13.3615 4.20538 14.4256 5.11781 15.32Z" fill="#DFDFDF"/>
</g>
</g>
</svg>
