<svg width="24" height="24" viewBox="0 0 24 24" fill="none" xmlns="http://www.w3.org/2000/svg">
<g id="cheer">
<mask id="mask0_1221_138" style="mask-type:alpha" maskUnits="userSpaceOnUse" x="0" y="0" width="24" height="24">
<rect id="Bounding box" width="24" height="24" fill="#D9D9D9"/>
</mask>
<g mask="url(#mask0_1221_138)">
<path id="cheer_2" d="M7.89631 5.03263L6.99248 2.33073L8.10401 1.96728L9.00783 4.65381L7.89631 5.03263ZM11.404 3.84611V1.15381H12.5963V3.84611H11.404ZM16.104 5.03263L14.9925 4.65381L15.8963 1.96728L17.0078 2.34611L16.104 5.03263ZM2.37133 22.7595L2.14826 21.275L7.42326 20.4654C7.65696 20.4245 7.8641 20.3274 8.04468 20.1741C8.22528 20.0208 8.35212 19.8301 8.42518 19.6019L9.26558 16.9519C9.36815 16.6545 9.36334 16.3653 9.25116 16.0846C9.13897 15.8038 8.9425 15.5955 8.66173 15.4596L7.77903 18.2326L6.35021 17.7769L8.61753 10.6346C8.6701 10.464 8.68196 10.2916 8.65311 10.1172C8.62426 9.94288 8.55149 9.80571 8.43481 9.70571L4.83481 16.525C4.59377 16.9698 4.25505 17.3253 3.81863 17.5913C3.3822 17.8573 2.91131 17.9903 2.40596 17.9903H1.60596V16.4904H2.40596C2.63417 16.4904 2.84775 16.4328 3.04668 16.3176C3.24562 16.2024 3.39743 16.0402 3.50213 15.8308L7.91753 7.46153L8.93673 8.03651C9.46365 8.34164 9.82903 8.7817 10.0329 9.35668C10.2367 9.93168 10.2463 10.5128 10.0617 11.0999L9.12326 14.0404C9.79247 14.3045 10.2752 14.7628 10.5713 15.4154C10.8675 16.0679 10.9085 16.7371 10.6944 17.423L9.84438 20.073C9.68028 20.5679 9.40176 20.9852 9.00881 21.3249C8.61587 21.6647 8.16172 21.873 7.64633 21.9499L2.37133 22.7595ZM21.629 22.7692L16.354 21.9596C15.8386 21.8826 15.3844 21.6743 14.9915 21.3346C14.5986 20.9948 14.32 20.5775 14.1559 20.0826L13.3059 17.4326C13.0918 16.7468 13.1329 16.0775 13.429 15.425C13.7252 14.7724 14.2078 14.3141 14.8771 14.05L13.9386 11.1096C13.754 10.5224 13.7636 9.94131 13.9674 9.36631C14.1713 8.79131 14.5367 8.35125 15.0636 8.04613L16.0828 7.47113L20.4982 15.8404C20.6026 16.0498 20.754 16.2121 20.9523 16.3272C21.1507 16.4424 21.3647 16.5 21.5943 16.5H22.3943V18H21.5943C21.0892 18 20.6184 17.867 20.1819 17.6009C19.7453 17.3349 19.4065 16.9795 19.1655 16.5346L15.5655 9.71531C15.4488 9.81531 15.3761 9.95249 15.3472 10.1269C15.3184 10.3012 15.3302 10.4737 15.3828 10.6442L17.6501 17.7865L16.2213 18.2423L15.3386 15.4692C15.0578 15.6051 14.8613 15.8134 14.7492 16.0942C14.637 16.375 14.6322 16.6641 14.7347 16.9615L15.5751 19.6115C15.6482 19.8397 15.775 20.0305 15.9556 20.1837C16.1362 20.337 16.3434 20.4341 16.5771 20.475L21.8521 21.2846L21.629 22.7692Z" fill="white"/>
</g>
</g>
</svg>
